HIERARCHY
ROOT Hips
{
	OFFSET 0.000000 0.000000 0.000000
	CHANNELS 6 Xposition Yposition Zposition Zrotation Yrotation Xrotation 
	JOINT LHipJoint
	{
		OFFSET 0.000000 0.000000 0.000000
		CHANNELS 3 Zrotation Yrotation Xrotation
		JOINT LeftUpLeg
		{
			OFFSET 1.363060 -1.794630 0.839290
			CHANNELS 3 Zrotation Yrotation Xrotation
			JOINT LeftLeg
			{
				OFFSET 2.448110 -6.726130 0.000000
				CHANNELS 3 Zrotation Yrotation Xrotation
				JOINT LeftFoot
				{
					OFFSET 2.562200 -7.039590 0.000000
					CHANNELS 3 Zrotation Yrotation Xrotation
					JOINT LeftToeBase
					{
						OFFSET 0.157640 -0.433110 2.322550
						CHANNELS 3 Zrotation Yrotation Xrotation
						End Site
						{
							OFFSET 0.000000 0.000000 0.000000
						}
					}
				}
			}
		}
	}
	JOINT RHipJoint
	{
		OFFSET 0.000000 0.000000 0.000000
		CHANNELS 3 Zrotation Yrotation Xrotation
		JOINT RightUpLeg
		{
			OFFSET -1.305520 -1.794630 0.839290
			CHANNELS 3 Zrotation Yrotation Xrotation
			JOINT RightLeg
			{
				OFFSET -2.542530 -6.985550 0.000000
				CHANNELS 3 Zrotation Yrotation Xrotation
				JOINT RightFoot
				{
					OFFSET -2.568260 -7.056230 0.000000
					CHANNELS 3 Zrotation Yrotation Xrotation
					JOINT RightToeBase
					{
						OFFSET -0.164730 -0.452590 2.363150
						CHANNELS 3 Zrotation Yrotation Xrotation
						End Site
						{
							OFFSET 0.000000 0.000000 0.000000
						}
					}
				}
			}
		}
	}
	JOINT LowerBack
	{
		OFFSET 0.000000 0.000000 0.000000
		CHANNELS 3 Zrotation Yrotation Xrotation
		JOINT Spine
		{
			OFFSET 0.028270 2.035590 -0.193380
			CHANNELS 3 Zrotation Yrotation Xrotation
			JOINT Spine1
			{
				OFFSET 0.056720 2.048850 -0.042750
				CHANNELS 3 Zrotation Yrotation Xrotation
				JOINT Neck
				{
					OFFSET 0.000000 0.000000 0.000000
					CHANNELS 3 Zrotation Yrotation Xrotation
					JOINT Neck1
					{
						OFFSET -0.054170 1.746240 0.172020
						CHANNELS 3 Zrotation Yrotation Xrotation
						JOINT Head
						{
							OFFSET 0.104070 1.761360 -0.123970
							CHANNELS 3 Zrotation Yrotation Xrotation
							End Site
							{
								OFFSET 0.000000 0.000000 0.000000
							}
						}
					}
				}
				JOINT LeftShoulder
				{
					OFFSET 0.000000 0.000000 0.000000
					CHANNELS 3 Zrotation Yrotation Xrotation
					JOINT LeftArm
					{
						OFFSET 3.362410 1.200890 -0.311210
						CHANNELS 3 Zrotation Yrotation Xrotation
						JOINT LeftForeArm
						{
							OFFSET 4.983000 -0.000000 -0.000000
							CHANNELS 3 Zrotation Yrotation Xrotation
							JOINT LeftHand
							{
								OFFSET 3.483560 -0.000000 -0.000000
								CHANNELS 3 Zrotation Yrotation Xrotation
								JOINT LeftFingerBase
								{
									OFFSET 0.000000 0.000000 0.000000
									CHANNELS 3 Zrotation Yrotation Xrotation
									JOINT LeftHandIndex1
									{
										OFFSET 0.715260 -0.000000 -0.000000
										CHANNELS 3 Zrotation Yrotation Xrotation
										End Site
										{
											OFFSET 0.000000 0.000000 0.000000
										}
									}
								}
								JOINT LThumb
								{
									OFFSET 0.000000 0.000000 0.000000
									CHANNELS 3 Zrotation Yrotation Xrotation
									End Site
									{
										OFFSET 0.000000 0.000000 0.000000
									}
								}
							}
						}
					}
				}
				JOINT RightShoulder
				{
					OFFSET 0.000000 0.000000 0.000000
					CHANNELS 3 Zrotation Yrotation Xrotation
					JOINT RightArm
					{
						OFFSET -3.136600 1.374050 -0.404650
						CHANNELS 3 Zrotation Yrotation Xrotation
						JOINT RightForeArm
						{
							OFFSET -5.241900 -0.000000 -0.000000
							CHANNELS 3 Zrotation Yrotation Xrotation
							JOINT RightHand
							{
								OFFSET -3.444170 -0.000000 -0.000000
								CHANNELS 3 Zrotation Yrotation Xrotation
								JOINT RightFingerBase
								{
									OFFSET 0.000000 0.000000 0.000000
									CHANNELS 3 Zrotation Yrotation Xrotation
									JOINT RightHandIndex1
									{
										OFFSET -0.622530 -0.000000 -0.000000
										CHANNELS 3 Zrotation Yrotation Xrotation
										End Site
										{
											OFFSET 0.000000 0.000000 0.000000
										}
									}
								}
								JOINT RThumb
								{
									OFFSET 0.000000 0.000000 0.000000
									CHANNELS 3 Zrotation Yrotation Xrotation
									End Site
									{
										OFFSET 0.000000 0.000000 0.000000
									}
								}
							}
						}
					}
				}
			}
		}
	}
}
MOTION
Frames: 6
Frame Time: 0.008333
16.815833 16.271424 2.890858 140.751937 -87.971096 -113.108705 -9.366300 2.595635 5.192593 -13.180992 -5.463237 -29.003738 -2.193649 -0.199663 34.396856 3.019036 8.975761 -27.460167 -3.944700 -0.000000 -31.608699 11.937747 -3.146876 1.523575 5.226971 -8.283943 -30.498817 -1.011830 -3.428182 62.627353 -2.496365 -13.406576 1.252955 -2.238300 -0.000001 -35.196701 -3.776656 -0.117503 -8.177778 -1.329959 0.019661 -4.240087 -4.098203 -0.062411 0.708085 7.231680 -3.354208 -6.975562 -1.566310 -0.120649 0.102335 0.000000 0.000000 0.000000 0.242765 1.904994 4.949417 -18.945525 -30.856124 -30.993522 -2.139331 -6.110786 -0.079091 12.348031 3.112883 0.311104 -0.279469 0.298568 0.000000 0.000000 0.000000 0.000000 0.000000 0.000000 0.000000 6.768555 0.578858 2.679668 15.537279 49.051349 10.590705 0.169028 64.606663 -0.009538 -0.149570 12.023466 -0.010626 -0.046911 -0.497125 0.000000 0.000000 0.000000 0.000000 0.000000 0.000000 0.000000 
16.560790 16.346571 2.919658 149.779539 -88.135795 -122.257233 -9.717094 2.627029 5.156907 -12.428285 -4.983130 -26.905478 -2.136842 -0.368728 32.030182 2.770607 8.654188 -25.569334 -3.468600 0.000000 -33.972800 11.611990 -3.072456 1.581821 5.948975 -7.562012 -32.079455 -1.004376 -3.498024 63.303050 -2.469054 -13.140420 0.071209 -1.974000 -0.000000 -34.592800 -3.036619 -0.204572 -8.176249 -1.150738 -0.128828 -4.223178 -4.103221 -0.207489 0.750377 7.325856 -3.334038 -6.929209 -1.542512 -0.119725 0.121472 0.000000 0.000000 0.000000 0.553763 1.750941 4.980068 -19.122063 -31.696338 -29.732075 -2.272548 -4.460779 -0.074802 11.837548 3.059070 0.293786 -0.284017 0.290215 -0.000000 0.000000 0.000000 0.000000 0.000000 0.000000 0.000000 6.697682 0.521320 2.607673 16.117299 48.156805 9.881384 0.182859 63.626542 -0.009151 -0.190682 11.994789 -0.015440 -0.043480 -0.489699 -0.000000 0.000000 0.000000 0.000000 0.000000 0.000000 0.000000 
16.303127 16.420832 2.947787 161.274644 -88.225120 -133.825714 -10.067239 2.694788 5.140066 -11.660885 -4.557325 -24.951360 -2.055439 -0.495774 29.784282 2.516446 8.369038 -23.430355 -2.967600 0.000000 -36.550300 11.287234 -2.968163 1.647927 6.694385 -6.828831 -33.691684 -0.991144 -3.539867 63.789434 -2.439220 -12.837481 -1.005124 -1.735000 -0.000001 -34.250599 -2.271615 -0.272112 -8.197242 -0.966318 -0.264017 -4.215276 -4.111697 -0.339325 0.780328 7.398073 -3.331219 -6.896422 -1.525494 -0.119074 0.136132 0.000000 0.000000 0.000000 0.831395 1.647563 4.998178 -19.324065 -32.490577 -28.442447 -2.378388 -3.265902 -0.071760 11.509641 2.966896 0.276975 -0.289191 0.283899 -0.000000 0.000000 0.000000 0.000000 0.000000 0.000000 0.000000 6.620620 0.460452 2.531709 16.722183 47.236397 8.966416 0.197669 62.649346 -0.009591 -0.367728 12.112698 -0.035746 -0.038187 -0.485779 -0.000000 0.000000 0.000000 0.000000 0.000000 0.000000 0.000000 
16.042429 16.493817 2.974474 175.345760 -88.245768 -147.919973 -10.371315 2.810344 5.136694 -10.885624 -4.182962 -23.157486 -1.952177 -0.579447 27.690194 2.265935 8.127037 -21.067340 -2.452400 -0.000000 -39.324000 11.006047 -2.824488 1.727619 7.464794 -6.084477 -35.325102 -0.966410 -3.559000 64.076574 -2.409122 -12.511248 -2.024031 -1.514100 0.000000 -34.018700 -1.453414 -0.316430 -8.241640 -0.768487 -0.387280 -4.216061 -4.126295 -0.460022 0.799172 7.457094 -3.353149 -6.878701 -1.516150 -0.118735 0.145907 0.000000 0.000000 0.000000 1.076182 1.575882 5.006346 -19.530313 -33.233005 -27.173667 -2.452243 -2.512170 -0.070002 11.380532 2.832988 0.260770 -0.294977 0.280046 -0.000000 0.000000 0.000000 0.000000 0.000000 0.000000 0.000000 6.552670 0.387325 2.455105 17.331953 46.294681 7.847721 0.213057 61.674504 -0.010798 -0.680913 12.359549 -0.072543 -0.031031 -0.485013 -0.000000 0.000000 0.000000 0.000000 0.000000 0.000000 0.000000 
15.778784 16.565203 2.998482 -168.891176 -88.275841 -163.656532 -10.581294 2.956805 5.135452 -10.123322 -3.878754 -21.515868 -1.825877 -0.634448 25.767008 2.028615 7.928224 -18.506110 -1.933700 -0.000000 -42.228301 10.810351 -2.666936 1.830484 8.239551 -5.357650 -36.982704 -0.914779 -3.585600 64.153142 -2.379568 -12.161866 -3.023963 -1.303300 0.000000 -33.724900 -0.573083 -0.368757 -8.308783 -0.552843 -0.529300 -4.224538 -4.148175 -0.599346 0.807852 7.515117 -3.400492 -6.875435 -1.515970 -0.118821 0.150927 0.000000 0.000000 0.000000 1.293631 1.498357 5.008943 -19.714052 -33.907722 -25.982091 -2.492212 -2.184258 -0.069485 11.443131 2.658840 0.244470 -0.301158 0.278955 -0.000000 0.000000 0.000000 0.000000 0.000000 0.000000 0.000000 6.516726 0.285610 2.380190 17.925875 45.333110 6.535400 0.228665 60.702806 -0.012709 -1.126906 12.704240 -0.127139 -0.022080 -0.486713 -0.000000 0.000000 0.000000 0.000000 0.000000 0.000000 0.000000 
15.512469 16.634780 3.020681 -150.632662 -88.401635 178.157502 -10.747462 3.086146 5.120772 -9.351856 -3.610763 -20.032997 -1.674570 -0.675412 24.049530 1.800607 7.721534 -15.775386 -1.414400 0.000000 -45.326900 10.645547 -2.561714 1.962289 9.033537 -4.651131 -38.647535 -0.822993 -3.643056 63.987692 -2.356057 -11.816195 -4.005565 -1.106600 0.000000 -33.287501 0.347280 -0.472645 -8.393586 -0.324472 -0.723453 -4.238462 -4.171862 -0.787547 0.810957 7.569515 -3.485937 -6.892769 -1.523676 -0.119140 0.149423 0.000000 0.000000 0.000000 1.479377 1.406306 5.008321 -19.862426 -34.562666 -24.934361 -2.494838 -2.215379 -0.070064 11.689036 2.406961 0.223076 -0.307507 0.281263 -0.000000 0.000000 0.000000 0.000000 0.000000 0.000000 0.000000 6.510429 0.127564 2.308107 18.489877 44.356057 5.024093 0.243833 59.731266 -0.015167 -1.679577 13.106414 -0.198236 -0.011794 -0.490049 -0.000000 0.000000 0.000000 0.000000 0.000000 0.000000 0.000000 
